<svg id="visual" viewBox="0 0 900 600" width="900" height="600" xmlns="http://www.w3.org/2000/svg" xmlns:xlink="http://www.w3.org/1999/xlink" version="1.1"><rect x="0" y="0" width="900" height="600" fill="#ffffff"></rect><path d="M283 0L273.7 10C264.3 20 245.7 40 246.8 60C248 80 269 100 276.7 120C284.3 140 278.7 160 270.2 180C261.7 200 250.3 220 247.3 240C244.3 260 249.7 280 246.7 300C243.7 320 232.3 340 227.7 360C223 380 225 400 237.5 420C250 440 273 460 279.2 480C285.3 500 274.7 520 268.7 540C262.7 560 261.3 580 260.7 590L260 600L0 600L0 590C0 580 0 560 0 540C0 520 0 500 0 480C0 460 0 440 0 420C0 400 0 380 0 360C0 340 0 320 0 300C0 280 0 260 0 240C0 220 0 200 0 180C0 160 0 140 0 120C0 100 0 80 0 60C0 40 0 20 0 10L0 0Z" fill="#009063"></path><path d="M228 0L225.8 10C223.7 20 219.3 40 215 60C210.7 80 206.3 100 207.7 120C209 140 216 160 220.5 180C225 200 227 220 218.7 240C210.3 260 191.7 280 185.2 300C178.7 320 184.3 340 191 360C197.7 380 205.3 400 201.8 420C198.3 440 183.7 460 185 480C186.3 500 203.7 520 209 540C214.3 560 207.7 580 204.3 590L201 600L0 600L0 590C0 580 0 560 0 540C0 520 0 500 0 480C0 460 0 440 0 420C0 400 0 380 0 360C0 340 0 320 0 300C0 280 0 260 0 240C0 220 0 200 0 180C0 160 0 140 0 120C0 100 0 80 0 60C0 40 0 20 0 10L0 0Z" fill="#2e7356"></path><path d="M150 0L148.2 10C146.3 20 142.7 40 136.2 60C129.7 80 120.3 100 120.7 120C121 140 131 160 140.3 180C149.7 200 158.3 220 153.7 240C149 260 131 280 121.7 300C112.3 320 111.7 340 119 360C126.3 380 141.7 400 142.7 420C143.7 440 130.3 460 124.5 480C118.7 500 120.3 520 119.7 540C119 560 116 580 114.5 590L113 600L0 600L0 590C0 580 0 560 0 540C0 520 0 500 0 480C0 460 0 440 0 420C0 400 0 380 0 360C0 340 0 320 0 300C0 280 0 260 0 240C0 220 0 200 0 180C0 160 0 140 0 120C0 100 0 80 0 60C0 40 0 20 0 10L0 0Z" fill="#395748"></path><path d="M71 0L71.8 10C72.7 20 74.3 40 75.8 60C77.3 80 78.7 100 80.7 120C82.7 140 85.3 160 85.5 180C85.7 200 83.3 220 84 240C84.7 260 88.3 280 87.5 300C86.7 320 81.3 340 82.3 360C83.3 380 90.7 400 90.7 420C90.7 440 83.3 460 79.2 480C75 500 74 520 76.2 540C78.3 560 83.7 580 86.3 590L89 600L0 600L0 590C0 580 0 560 0 540C0 520 0 500 0 480C0 460 0 440 0 420C0 400 0 380 0 360C0 340 0 320 0 300C0 280 0 260 0 240C0 220 0 200 0 180C0 160 0 140 0 120C0 100 0 80 0 60C0 40 0 20 0 10L0 0Z" fill="#3b3b3b"></path></svg>