<svg id="visual" viewBox="0 0 1000 400" width="1000" height="400" xmlns="http://www.w3.org/2000/svg" xmlns:xlink="http://www.w3.org/1999/xlink" version="1.1"><rect x="0" y="0" width="1000" height="400" fill="#ffffff"></rect><path d="M0 261L15.2 266C30.3 271 60.7 281 91 281.2C121.3 281.3 151.7 271.7 182 267.3C212.3 263 242.7 264 273 277.3C303.3 290.7 333.7 316.3 364 325.8C394.3 335.3 424.7 328.7 454.8 317.5C485 306.3 515 290.7 545.2 290.3C575.3 290 605.7 305 636 310C666.3 315 696.7 310 727 313.2C757.3 316.3 787.7 327.7 818 326.8C848.3 326 878.7 313 909 312.3C939.3 311.7 969.7 323.3 984.8 329.2L1000 335L1000 401L984.8 401C969.7 401 939.3 401 909 401C878.7 401 848.3 401 818 401C787.7 401 757.3 401 727 401C696.7 401 666.3 401 636 401C605.7 401 575.3 401 545.2 401C515 401 485 401 454.8 401C424.7 401 394.3 401 364 401C333.7 401 303.3 401 273 401C242.7 401 212.3 401 182 401C151.7 401 121.3 401 91 401C60.7 401 30.3 401 15.2 401L0 401Z" fill="#ff0c6d" stroke-linecap="round" stroke-linejoin="miter"></path></svg>