<svg id="visual" viewBox="0 0 1000 400" width="1000" height="400" xmlns="http://www.w3.org/2000/svg" xmlns:xlink="http://www.w3.org/1999/xlink" version="1.1"><rect x="0" y="0" width="1000" height="400" fill="#ffffff"></rect><path d="M0 337L23.8 330.5C47.7 324 95.3 311 143 303.3C190.7 295.7 238.3 293.3 286 285.8C333.7 278.3 381.3 265.7 428.8 274C476.3 282.3 523.7 311.7 571.2 324.2C618.7 336.7 666.3 332.3 714 323.3C761.7 314.3 809.3 300.7 857 302C904.7 303.3 952.3 319.7 976.2 327.8L1000 336L1000 401L976.2 401C952.3 401 904.7 401 857 401C809.3 401 761.7 401 714 401C666.3 401 618.7 401 571.2 401C523.7 401 476.3 401 428.8 401C381.3 401 333.7 401 286 401C238.3 401 190.7 401 143 401C95.3 401 47.7 401 23.8 401L0 401Z" fill="#8d4fec" stroke-linecap="round" stroke-linejoin="miter"></path></svg>