<svg id="visual" viewBox="0 0 900 450" width="900" height="450" xmlns="http://www.w3.org/2000/svg" xmlns:xlink="http://www.w3.org/1999/xlink" version="1.1"><rect x="0" y="0" width="900" height="450" fill="#ffffff"></rect><path d="M608 450L618.7 444.2C629.3 438.3 650.7 426.7 675.7 415.2C700.7 403.7 729.3 392.3 743.5 380.8C757.7 369.3 757.3 357.7 745.2 346.2C733 334.7 709 323.3 694.2 311.8C679.3 300.3 673.7 288.7 685 277C696.3 265.3 724.7 253.7 719.5 242.2C714.3 230.7 675.7 219.3 651.5 207.8C627.3 196.3 617.7 184.7 620.7 173C623.7 161.3 639.3 149.7 643.3 138.2C647.3 126.7 639.7 115.3 642.2 103.8C644.7 92.3 657.3 80.7 671 69.2C684.7 57.7 699.3 46.3 707.5 34.8C715.7 23.3 717.3 11.7 718.2 5.8L719 0L900 0L900 5.8C900 11.7 900 23.3 900 34.8C900 46.3 900 57.7 900 69.2C900 80.7 900 92.3 900 103.8C900 115.3 900 126.7 900 138.2C900 149.7 900 161.3 900 173C900 184.7 900 196.3 900 207.8C900 219.3 900 230.7 900 242.2C900 253.7 900 265.3 900 277C900 288.7 900 300.3 900 311.8C900 323.3 900 334.7 900 346.2C900 357.7 900 369.3 900 380.8C900 392.3 900 403.7 900 415.2C900 426.7 900 438.3 900 444.2L900 450Z" fill="#ff1d77" stroke-linecap="round" stroke-linejoin="miter"></path></svg>