<svg id="visual" viewBox="0 0 900 450" width="900" height="450" xmlns="http://www.w3.org/2000/svg" xmlns:xlink="http://www.w3.org/1999/xlink" version="1.1"><rect x="0" y="0" width="900" height="450" fill="#ffffff"></rect><path d="M336 0L307.7 10.7C279.3 21.3 222.7 42.7 211.5 64.2C200.3 85.7 234.7 107.3 252.8 128.8C271 150.3 273 171.7 254 193C235 214.3 195 235.7 179.5 257C164 278.3 173 299.7 172.8 321.2C172.7 342.7 163.3 364.3 161.3 385.8C159.3 407.3 164.7 428.7 167.3 439.3L170 450L0 450L0 439.3C0 428.7 0 407.3 0 385.8C0 364.3 0 342.7 0 321.2C0 299.7 0 278.3 0 257C0 235.7 0 214.3 0 193C0 171.7 0 150.3 0 128.8C0 107.3 0 85.7 0 64.2C0 42.7 0 21.3 0 10.7L0 0Z" fill="#a472f0" stroke-linecap="round" stroke-linejoin="miter"></path></svg>